<mxfile host="65bd71144e" modified="2023-11-15T21:33:28.022Z" agent="Mozilla/5.0 (Windows NT 10.0; Win64; x64) AppleWebKit/537.36 (KHTML, like Gecko) Code/1.84.2 Chrome/114.0.5735.289 Electron/25.9.2 Safari/537.36" etag="k6HSpOuO3UfC_DU-HfQ2" version="22.1.1" type="embed">
    <diagram id="b4hcyk7Rixwnp3nCZ_24" name="Page-1">
        <mxGraphModel dx="1506" dy="590" grid="1" gridSize="10" guides="1" tooltips="1" connect="1" arrows="1" fold="1" page="1" pageScale="1" pageWidth="850" pageHeight="1100" math="0" shadow="0">
            <root>
                <mxCell id="0"/>
                <mxCell id="1" parent="0"/>
                <mxCell id="41" value="Add new task(s) &lt;br style=&quot;font-size: 18px;&quot;&gt;to partial graph" style="edgeStyle=none;html=1;exitX=0.143;exitY=1.009;exitDx=0;exitDy=0;entryX=0.5;entryY=0;entryDx=0;entryDy=0;exitPerimeter=0;fontSize=18;labelBackgroundColor=none;" parent="1" source="32" target="3" edge="1">
                    <mxGeometry x="0.5925" y="-60" relative="1" as="geometry">
                        <mxPoint as="offset"/>
                    </mxGeometry>
                </mxCell>
                <mxCell id="32" value="Node scheduler" style="rounded=1;whiteSpace=wrap;html=1;verticalAlign=top;fontSize=22;" parent="1" vertex="1">
                    <mxGeometry x="257.5" y="107" width="290" height="163" as="geometry"/>
                </mxCell>
                <mxCell id="31" value="QPS scheduler" style="rounded=1;whiteSpace=wrap;html=1;verticalAlign=top;fontSize=22;" parent="1" vertex="1">
                    <mxGeometry x="472.5" y="340" width="260" height="130" as="geometry"/>
                </mxCell>
                <mxCell id="3" value="CPS scheduler" style="rounded=1;whiteSpace=wrap;html=1;verticalAlign=top;fontSize=22;" parent="1" vertex="1">
                    <mxGeometry x="118" y="340" width="260" height="130" as="geometry"/>
                </mxCell>
                <mxCell id="28" value="" style="group;fontSize=20;" parent="1" vertex="1" connectable="0">
                    <mxGeometry x="340" y="140" width="115" height="100" as="geometry"/>
                </mxCell>
                <mxCell id="19" value="" style="ellipse;whiteSpace=wrap;html=1;aspect=fixed;fontSize=20;" parent="28" vertex="1">
                    <mxGeometry x="27.878787878787882" width="20.90909090909091" height="20.90909090909091" as="geometry"/>
                </mxCell>
                <mxCell id="20" value="" style="ellipse;whiteSpace=wrap;html=1;aspect=fixed;fontSize=20;" parent="28" vertex="1">
                    <mxGeometry y="35.714285714285715" width="20.90909090909091" height="20.90909090909091" as="geometry"/>
                </mxCell>
                <mxCell id="17" style="edgeStyle=none;html=1;exitX=0;exitY=1;exitDx=0;exitDy=0;entryX=1;entryY=0;entryDx=0;entryDy=0;fontSize=20;" parent="28" source="19" target="20" edge="1">
                    <mxGeometry relative="1" as="geometry"/>
                </mxCell>
                <mxCell id="21" value="" style="ellipse;whiteSpace=wrap;html=1;aspect=fixed;fontSize=20;" parent="28" vertex="1">
                    <mxGeometry x="55.757575757575765" y="35.714285714285715" width="20.90909090909091" height="20.90909090909091" as="geometry"/>
                </mxCell>
                <mxCell id="18" style="edgeStyle=none;html=1;exitX=1;exitY=1;exitDx=0;exitDy=0;entryX=0;entryY=0;entryDx=0;entryDy=0;fontSize=20;" parent="28" source="19" target="21" edge="1">
                    <mxGeometry relative="1" as="geometry"/>
                </mxCell>
                <mxCell id="24" style="edgeStyle=none;html=1;exitX=0;exitY=1;exitDx=0;exitDy=0;entryX=1;entryY=0;entryDx=0;entryDy=0;fontSize=20;" parent="28" source="23" target="21" edge="1">
                    <mxGeometry relative="1" as="geometry"/>
                </mxCell>
                <mxCell id="23" value="" style="ellipse;whiteSpace=wrap;html=1;aspect=fixed;fontSize=20;" parent="28" vertex="1">
                    <mxGeometry x="94.0909090909091" width="20.90909090909091" height="20.90909090909091" as="geometry"/>
                </mxCell>
                <mxCell id="25" value="" style="ellipse;whiteSpace=wrap;html=1;aspect=fixed;fontSize=20;" parent="28" vertex="1">
                    <mxGeometry x="55.757575757575765" y="78.57142857142857" width="20.90909090909091" height="20.90909090909091" as="geometry"/>
                </mxCell>
                <mxCell id="27" style="edgeStyle=none;html=1;exitX=0.5;exitY=1;exitDx=0;exitDy=0;entryX=0.5;entryY=0;entryDx=0;entryDy=0;fontSize=20;" parent="28" source="21" target="25" edge="1">
                    <mxGeometry relative="1" as="geometry"/>
                </mxCell>
                <mxCell id="29" value="" style="group;fontSize=20;" parent="1" vertex="1" connectable="0">
                    <mxGeometry x="202" y="381" width="93" height="60" as="geometry"/>
                </mxCell>
                <mxCell id="5" value="" style="ellipse;whiteSpace=wrap;html=1;aspect=fixed;fontSize=20;" parent="29" vertex="1">
                    <mxGeometry x="30.999999999999996" width="20.315533980582526" height="20.315533980582526" as="geometry"/>
                </mxCell>
                <mxCell id="8" value="" style="ellipse;whiteSpace=wrap;html=1;aspect=fixed;fontSize=20;" parent="29" vertex="1">
                    <mxGeometry y="37.5" width="20.315533980582526" height="20.315533980582526" as="geometry"/>
                </mxCell>
                <mxCell id="9" style="edgeStyle=none;html=1;exitX=0;exitY=1;exitDx=0;exitDy=0;entryX=1;entryY=0;entryDx=0;entryDy=0;fontSize=20;" parent="29" source="5" target="8" edge="1">
                    <mxGeometry relative="1" as="geometry"/>
                </mxCell>
                <mxCell id="10" value="" style="ellipse;whiteSpace=wrap;html=1;aspect=fixed;fontSize=20;" parent="29" vertex="1">
                    <mxGeometry x="61.99999999999999" y="37.5" width="20.315533980582526" height="20.315533980582526" as="geometry"/>
                </mxCell>
                <mxCell id="11" style="edgeStyle=none;html=1;exitX=1;exitY=1;exitDx=0;exitDy=0;entryX=0;entryY=0;entryDx=0;entryDy=0;fontSize=20;" parent="29" source="5" target="10" edge="1">
                    <mxGeometry relative="1" as="geometry"/>
                </mxCell>
                <mxCell id="15" style="edgeStyle=none;html=1;entryX=1;entryY=0;entryDx=0;entryDy=0;fontSize=20;" parent="29" target="10" edge="1">
                    <mxGeometry relative="1" as="geometry">
                        <mxPoint x="93" y="22.5" as="sourcePoint"/>
                        <mxPoint x="72.85000000000001" y="48" as="targetPoint"/>
                    </mxGeometry>
                </mxCell>
                <mxCell id="30" value="" style="group;fontSize=20;" parent="1" vertex="1" connectable="0">
                    <mxGeometry x="589" y="371" width="27" height="90" as="geometry"/>
                </mxCell>
                <mxCell id="12" value="" style="ellipse;whiteSpace=wrap;html=1;aspect=fixed;fontSize=20;" parent="30" vertex="1">
                    <mxGeometry x="6.75" y="9" width="20.25" height="20.25" as="geometry"/>
                </mxCell>
                <mxCell id="13" value="" style="ellipse;whiteSpace=wrap;html=1;aspect=fixed;fontSize=20;" parent="30" vertex="1">
                    <mxGeometry x="6.75" y="49" width="20.25" height="20.25" as="geometry"/>
                </mxCell>
                <mxCell id="14" style="edgeStyle=none;html=1;exitX=0.5;exitY=1;exitDx=0;exitDy=0;entryX=0.5;entryY=0;entryDx=0;entryDy=0;fontSize=20;" parent="30" source="12" target="13" edge="1">
                    <mxGeometry relative="1" as="geometry"/>
                </mxCell>
                <mxCell id="16" style="edgeStyle=none;html=1;entryX=0;entryY=0;entryDx=0;entryDy=0;fontSize=20;" parent="30" target="12" edge="1">
                    <mxGeometry relative="1" as="geometry">
                        <mxPoint as="sourcePoint"/>
                        <mxPoint x="-13.5" y="12.6" as="targetPoint"/>
                    </mxGeometry>
                </mxCell>
                <mxCell id="37" value="Partial graph of CPS tasks" style="text;html=1;strokeColor=none;fillColor=none;align=center;verticalAlign=middle;whiteSpace=wrap;rounded=0;fontSize=18;" parent="1" vertex="1">
                    <mxGeometry x="140.75" y="441" width="215.5" height="30" as="geometry"/>
                </mxCell>
                <mxCell id="38" value="Partial graph of QPS tasks" style="text;html=1;strokeColor=none;fillColor=none;align=center;verticalAlign=middle;whiteSpace=wrap;rounded=0;fontSize=18;" parent="1" vertex="1">
                    <mxGeometry x="491" y="441" width="223" height="30" as="geometry"/>
                </mxCell>
                <mxCell id="40" value="Full graph of all tasks" style="text;html=1;strokeColor=none;fillColor=none;align=center;verticalAlign=middle;whiteSpace=wrap;rounded=0;fontSize=18;" parent="1" vertex="1">
                    <mxGeometry x="308.5" y="240" width="182.5" height="30" as="geometry"/>
                </mxCell>
                <mxCell id="43" value="" style="edgeStyle=none;html=1;exitX=0.75;exitY=0;exitDx=0;exitDy=0;entryX=0.35;entryY=1.013;entryDx=0;entryDy=0;entryPerimeter=0;fontSize=16;labelBackgroundColor=none;dashed=1;" parent="1" source="3" target="32" edge="1">
                    <mxGeometry x="0.2387" y="-21" relative="1" as="geometry">
                        <mxPoint as="offset"/>
                    </mxGeometry>
                </mxCell>
                <mxCell id="44" value="Add new task(s) &lt;br style=&quot;font-size: 18px;&quot;&gt;to partial graph" style="edgeStyle=none;html=1;exitX=0.874;exitY=1;exitDx=0;exitDy=0;entryX=0.5;entryY=0;entryDx=0;entryDy=0;exitPerimeter=0;fontSize=18;labelBackgroundColor=none;" parent="1" source="32" target="31" edge="1">
                    <mxGeometry x="0.5371" y="55" relative="1" as="geometry">
                        <mxPoint x="487.5" y="280" as="sourcePoint"/>
                        <mxPoint x="436.5" y="438" as="targetPoint"/>
                        <mxPoint as="offset"/>
                    </mxGeometry>
                </mxCell>
                <mxCell id="45" value="" style="edgeStyle=none;html=1;exitX=0.25;exitY=0;exitDx=0;exitDy=0;entryX=0.684;entryY=1.004;entryDx=0;entryDy=0;entryPerimeter=0;fontSize=16;labelBackgroundColor=none;dashed=1;" parent="1" source="31" target="32" edge="1">
                    <mxGeometry x="0.0391" y="8" relative="1" as="geometry">
                        <mxPoint x="501.5" y="438" as="sourcePoint"/>
                        <mxPoint x="547.5" y="281" as="targetPoint"/>
                        <mxPoint as="offset"/>
                    </mxGeometry>
                </mxCell>
                <mxCell id="46" value="&lt;font style=&quot;font-size: 18px;&quot;&gt;Signal that task&lt;br style=&quot;border-color: var(--border-color); font-size: 18px;&quot;&gt;finished&lt;/font&gt;" style="text;html=1;strokeColor=none;fillColor=none;align=center;verticalAlign=middle;whiteSpace=wrap;rounded=0;fontSize=18;" parent="1" vertex="1">
                    <mxGeometry x="330" y="290" width="180" height="50" as="geometry"/>
                </mxCell>
            </root>
        </mxGraphModel>
    </diagram>
</mxfile>